<svg width="72" height="77" viewBox="0 0 72 77" fill="none" xmlns="http://www.w3.org/2000/svg">
<g filter="url(#filter0_d)">
<path d="M66.496 17.92C66.496 22 65.056 25.528 62.176 28.504C59.296 31.432 55.096 33.544 49.576 34.84C52.552 35.656 54.808 37 56.344 38.872C57.88 40.696 58.648 42.808 58.648 45.208C58.648 49 57.448 52.288 55.048 55.072C52.696 57.856 49.24 60.016 44.68 61.552C40.12 63.04 34.624 63.784 28.192 63.784C25.792 63.784 23.872 63.712 22.432 63.568C22.384 64.912 21.808 65.92 20.704 66.592C19.6 67.264 18.184 67.6 16.456 67.6C14.728 67.6 13.528 67.216 12.856 66.448C12.232 65.68 11.968 64.552 12.064 63.064C12.496 56.344 13.336 49.312 14.584 41.968C15.832 34.576 17.416 27.448 19.336 20.584C19.672 19.384 20.344 18.544 21.352 18.064C22.36 17.584 23.68 17.344 25.312 17.344C28.24 17.344 29.704 18.16 29.704 19.792C29.704 20.464 29.56 21.232 29.272 22.096C28.024 25.84 26.776 30.928 25.528 37.36C24.28 43.744 23.392 49.84 22.864 55.648C25.168 55.84 27.04 55.936 28.48 55.936C35.2 55.936 40.12 54.976 43.24 53.056C46.408 51.088 47.992 48.592 47.992 45.568C47.992 43.456 47.08 41.68 45.256 40.24C43.48 38.8 40.48 38.008 36.256 37.864C35.296 37.816 34.624 37.576 34.24 37.144C33.856 36.712 33.664 36.016 33.664 35.056C33.664 33.664 33.952 32.536 34.528 31.672C35.104 30.808 36.16 30.352 37.696 30.304C41.104 30.208 44.176 29.704 46.912 28.792C49.696 27.88 51.88 26.608 53.464 24.976C55.048 23.296 55.84 21.352 55.84 19.144C55.84 16.36 54.472 14.176 51.736 12.592C49 10.96 44.8 10.144 39.136 10.144C34 10.144 29.032 10.816 24.232 12.16C19.432 13.456 15.352 15.112 11.992 17.128C10.456 18.04 9.16 18.496 8.104 18.496C7.24 18.496 6.568 18.208 6.088 17.632C5.656 17.008 5.44 16.24 5.44 15.328C5.44 14.128 5.68 13.096 6.16 12.232C6.688 11.368 7.912 10.384 9.832 9.28C13.864 6.976 18.592 5.176 24.016 3.88C29.44 2.584 34.984 1.936 40.648 1.936C49.336 1.936 55.816 3.4 60.088 6.328C64.36 9.256 66.496 13.12 66.496 17.92Z" fill="#D17837"/>
</g>
<defs>
<filter id="filter0_d" x="0.439941" y="0.935974" width="71.056" height="75.664" filterUnits="userSpaceOnUse" color-interpolation-filters="sRGB">
<feFlood flood-opacity="0" result="BackgroundImageFix"/>
<feColorMatrix in="SourceAlpha" type="matrix" values="0 0 0 0 0 0 0 0 0 0 0 0 0 0 0 0 0 0 127 0"/>
<feOffset dy="4"/>
<feGaussianBlur stdDeviation="2.5"/>
<feColorMatrix type="matrix" values="0 0 0 0 0 0 0 0 0 0 0 0 0 0 0 0 0 0 0.6 0"/>
<feBlend mode="normal" in2="BackgroundImageFix" result="effect1_dropShadow"/>
<feBlend mode="normal" in="SourceGraphic" in2="effect1_dropShadow" result="shape"/>
</filter>
</defs>
</svg>
